<?xml version="1.0" encoding="UTF-8"?>
<!-- Created with Inkscape (http://www.inkscape.org/) -->
<svg width="498.16" height="558.42" version="1.1" viewBox="0 0 131.8 147.75" xml:space="preserve" xmlns="http://www.w3.org/2000/svg"><g transform="translate(-39.098 -55.695)" stroke="#ac82fe" stroke-linecap="round" stroke-linejoin="round"><path transform="matrix(.78958 0 0 .78958 22.094 27.264)" d="m72.714 148.21 1e-6 -37.281 32.286-18.64 32.286 18.64-1e-5 37.281-32.286 18.64z" fill="none" stroke-width="7.3819"/><path transform="matrix(1.4308 0 0 1.4308 -45.232 -55.816)" d="m72.714 148.21 1e-6 -37.281 32.286-18.64 32.286 18.64-1e-5 37.281-32.286 18.64z" fill="none" stroke-width="4.5865"/><g fill="#fff" stroke-width="6.5623"><path d="m105 182.91-1e-5 -23.905"/><path d="m130.49 114.85 20.702-11.952"/><path d="m58.805 102.9 20.702 11.952"/></g><g fill="#d7c8f3" stroke-width="6.5623"><path d="m58.805 156.24 20.702-11.952" style="paint-order:stroke fill markers"/><path d="m105 76.229-1e-5 23.905" style="paint-order:stroke fill markers"/><path d="m151.19 156.24-20.702-11.952" style="paint-order:stroke fill markers"/></g><g fill="#fff" stroke-width="6.5623"><circle cx="105" cy="76.229" r="9.0508"/><circle cx="151.25" cy="102.8" r="9.0508"/><circle cx="151.25" cy="156.34" r="9.0508"/><circle cx="105.12" cy="182.91" r="9.0508"/><circle cx="58.747" cy="156.34" r="9.0508"/><circle cx="58.747" cy="102.8" r="9.0508"/></g><g fill="#d7c8f3" stroke-width="6.5623"><path d="m79.507 114.85 25.493 14.718" style="paint-order:stroke fill markers"/><path d="m130.49 114.85-25.493 14.718" style="paint-order:stroke fill markers"/><path d="m105 129.57v29.436" style="paint-order:stroke fill markers"/></g><g stroke-width="4.6404"><path d="m91.981 148.01-9.4083-5.4597-0.06114-11.004c-0.03363-6.052 0.02932-10.968 0.13987-10.924 0.11056 0.0435 4.3983 2.5023 9.5282 5.4639l9.3272 5.3847v11.021c0 6.0616-0.0264 11.011-0.0588 10.999-0.0323-0.0119-4.2925-2.4785-9.4671-5.4813z" fill="#d6bffe" style="paint-order:stroke fill markers"/><path d="m108.34 142.53 0.01-11.014 8.3885-4.8218c4.6137-2.652 8.896-5.115 9.5163-5.4733l1.1278-0.65158v22.012l-7.9238 4.5812c-4.3581 2.5197-8.6448 4.9862-9.5259 5.4812l-1.6021 0.89999z" fill="#e0cefe" style="paint-order:stroke fill markers"/><path d="m95.324 120.07c-5.1471-2.9871-9.3279-5.4549-9.2907-5.4841 0.03724-0.0292 4.3217-2.5051 9.5211-5.5021l9.4534-5.4491 9.422 5.4411c5.1821 2.9926 9.4176 5.5087 9.4122 5.5912-0.0138 0.20907-18.331 10.723-18.788 10.784-0.20432 0.0274-4.5828-2.3942-9.7299-5.3813z" fill="#f5ecfe" style="paint-order:stroke fill markers"/></g></g></svg>
